# xmcd
# 
# Track frame offsets:
#     150
#     25012
#     41458
#     66413
#     88061
#     106288
#     125741
#     142586
#     162079
#     171816
# 
# Disc length: 2552
# 
# Revision: 0
# Processed by: cddbd v1.5.2PL0 Copyright (c) Steve Scherf et al.
# Submitted via: fre:ac v1.0.31
# 
DISCID=7c09f60a
DTITLE=茄子蛋EggPlantEgg - 卡通人物
DYEAR=2017
DGENRE=
TTITLE0=波克比的愛
TTITLE1=Ms. Doremi
TTITLE2=親愛的無敵孫小美
TTITLE3=我若是有來生我想欲變成你
TTITLE4=日常
TTITLE5=浪子回頭
TTITLE6=人類攏同款
TTITLE7=你不懂我的這款愛情
TTITLE8=Outro
TTITLE9=把你的女朋友送給我好不好
EXTD=
EXTT0=
EXTT1=
EXTT2=
EXTT3=
EXTT4=
EXTT5=
EXTT6=
EXTT7=
EXTT8=
EXTT9=
PLAYORDER=
